<svg xmlns="http://www.w3.org/2000/svg" width="65" height="65" viewBox="0 0 65 65" fill="none">
  <g clip-path="url(#clip0_108_10276)">
    <path d="M15.918 36.5373V47.1666H53.2759C54.3432 47.1666 55.2085 46.3013 55.2085 45.234C55.2085 44.2957 55.2085 37.4738 55.2085 36.5373L35.5632 33.9604L15.918 36.5373Z" fill="#8B9BA9"/>
    <path d="M51.3432 36.022V43.3015H15.918V47.1667H53.2759C54.3432 47.1667 55.2085 46.3014 55.2085 45.2341C55.2085 44.3448 55.2085 37.4096 55.2085 36.5374L51.3432 36.022Z" fill="#6C7A88"/>
    <path d="M56.9477 11.0692H21.716C20.6487 11.0692 19.7834 11.9345 19.7834 13.0018V19.0245H6.89481C5.08692 19.0245 3.52048 20.2778 3.12378 22.0417L1.66105 28.5463C1.28536 30.2171 1.0957 31.9245 1.0957 33.637V47.1664H19.7834C19.7834 46.8519 19.7834 42.072 19.7834 36.5371H56.9478C58.0151 36.5371 58.8804 35.6718 58.8804 34.6045V13.0018C58.8803 11.9344 58.0151 11.0692 56.9477 11.0692Z" fill="#FF7E40"/>
    <path d="M64.0343 28.2375H58.8804V24.7695H61.4573C61.9911 24.7695 62.4236 24.3368 62.4236 23.8032C62.4236 23.2695 61.9911 22.8369 61.4573 22.8369H58.8804V19.3689H62.7457C63.2795 19.3689 63.712 18.9362 63.712 18.4026C63.712 17.8689 63.2795 17.4363 62.7457 17.4363H58.8804V13.9681H64.0343C64.568 13.9681 65.0006 13.5355 65.0006 13.0018C65.0006 12.4682 64.568 12.0355 64.0343 12.0355H58.6197C58.2854 11.4584 57.6627 11.0692 56.9478 11.0692H55.0152V32.672H19.7834C19.7834 25.8735 19.7834 19.2079 19.7834 19.0243H15.9182V36.5372H13.0192C10.202 36.5372 7.63925 37.641 5.73525 39.4361H1.0957V47.1666H19.7834C19.7834 46.9044 19.7834 42.1025 19.7834 36.5372H31.6952H56.9478C57.6627 36.5372 58.2854 36.148 58.6197 35.5709H62.7457C63.2795 35.5709 63.712 35.1383 63.712 34.6046C63.712 34.071 63.2795 33.6383 62.7457 33.6383H58.8804V30.1702H64.0343C64.568 30.1702 65.0006 29.7376 65.0006 29.2039C65.0006 28.6702 64.568 28.2375 64.0343 28.2375Z" fill="#FF6344"/>
    <path d="M0.966303 47.1664H8.03913V43.3011H0.966303C0.432646 43.3011 0 43.7338 0 44.2675V46.2001C0 46.7338 0.432646 47.1664 0.966303 47.1664Z" fill="#8B9BA9"/>
    <path d="M15.9174 22.8895H6.66357L4.82617 31.0602H15.9174V22.8895Z" fill="#9DC6FB"/>
    <path d="M12.2827 27.195H5.69533L4.82617 31.0602H15.9174V22.8895H12.2827V27.195Z" fill="#80B4FB"/>
    <path d="M45.8676 53.9305C49.6034 53.9305 52.6318 50.9021 52.6318 47.1663C52.6318 43.4306 49.6034 40.4022 45.8676 40.4022C42.1319 40.4022 39.1035 43.4306 39.1035 47.1663C39.1035 50.9021 42.1319 53.9305 45.8676 53.9305Z" fill="#4D5967"/>
    <path d="M47.2504 40.5449C46.4576 42.0097 46.6793 43.8784 47.9174 45.1164L43.8177 49.2162C42.5797 47.978 40.711 47.7561 39.2461 48.5491C39.8862 51.6177 42.6117 53.9304 45.8676 53.9304C49.5974 53.9304 52.6317 50.8961 52.6317 47.1663C52.6316 43.9104 50.319 41.185 47.2504 40.5449Z" fill="#35404A"/>
    <path d="M45.8677 50.0654C47.4687 50.0654 48.7666 48.7675 48.7666 47.1665C48.7666 45.5655 47.4687 44.2676 45.8677 44.2676C44.2666 44.2676 42.9688 45.5655 42.9688 47.1665C42.9688 48.7675 44.2666 50.0654 45.8677 50.0654Z" fill="#FFF9EB"/>
    <path d="M13.018 53.9305C16.7538 53.9305 19.7822 50.9021 19.7822 47.1663C19.7822 43.4306 16.7538 40.4022 13.018 40.4022C9.28231 40.4022 6.25391 43.4306 6.25391 47.1663C6.25391 50.9021 9.28231 53.9305 13.018 53.9305Z" fill="#4D5967"/>
    <path d="M14.4008 40.5449C13.6079 42.0097 13.8297 43.8784 15.0678 45.1164L10.9681 49.2162C9.7301 47.978 7.8614 47.7561 6.39648 48.5491C7.03656 51.6177 9.76205 53.9304 13.018 53.9304C16.7478 53.9304 19.7821 50.8961 19.7821 47.1663C19.7821 43.9104 17.4695 41.185 14.4008 40.5449Z" fill="#35404A"/>
    <path d="M13.0181 50.0654C14.6191 50.0654 15.917 48.7675 15.917 47.1665C15.917 45.5655 14.6191 44.2676 13.0181 44.2676C11.417 44.2676 10.1191 45.5655 10.1191 47.1665C10.1191 48.7675 11.417 50.0654 13.0181 50.0654Z" fill="#FFF9EB"/>
    <path d="M29.5611 21.8712V22.8375H30.785C31.3186 22.8375 31.751 23.2699 31.751 23.8037C31.751 24.3374 31.3186 24.77 30.785 24.77H29.5611V26.7023C29.5611 27.2361 29.1285 27.6686 28.595 27.6686C28.0614 27.6686 27.6289 27.2362 27.6289 26.7023V20.9051C27.6289 20.3715 28.0614 19.9391 28.595 19.9391H31.5579C32.0916 19.9391 32.5239 20.3715 32.5239 20.9051C32.5239 21.4389 32.0916 21.8714 31.5579 21.8714H29.5611V21.8712Z" fill="#FFF9EB"/>
    <path d="M38.7709 26.0216C39.1463 26.4004 39.1439 27.0122 38.7651 27.3879C38.5765 27.5746 38.3306 27.668 38.0847 27.668C37.836 27.668 37.5875 27.5727 37.3986 27.3821L35.7659 25.7357H35.2506V26.7017C35.2506 27.2355 34.8179 27.668 34.2844 27.668C33.7509 27.668 33.3184 27.2356 33.3184 26.7017V20.9046C33.3184 20.3709 33.7509 19.9385 34.2844 19.9385H36.1687C37.7579 19.9385 39.051 21.2389 39.051 22.837C39.051 23.7799 38.6007 24.6188 37.9051 25.1486L38.7709 26.0216ZM37.1185 22.837C37.1185 22.3041 36.6923 21.8707 36.1687 21.8707H35.2506V23.8031H36.1687C36.6923 23.8031 37.1185 23.3697 37.1185 22.837Z" fill="#FFF9EB"/>
    <path d="M45.0396 26.7016C45.0396 27.2354 44.6072 27.6679 44.0735 27.6679H41.1106C40.577 27.6679 40.1445 27.2355 40.1445 26.7016V20.9044C40.1445 20.3707 40.577 19.9384 41.1106 19.9384H44.0735C44.6072 19.9384 45.0396 20.3707 45.0396 20.9044C45.0396 21.4382 44.6072 21.8707 44.0735 21.8707H42.0767V22.837H43.3006C43.8343 22.837 44.2666 23.2694 44.2666 23.8032C44.2666 24.337 43.8343 24.7695 43.3006 24.7695H42.0767V25.7357H44.0735C44.6072 25.7355 45.0396 26.1679 45.0396 26.7016Z" fill="#FFF9EB"/>
    <path d="M51.0337 26.7016C51.0337 27.2354 50.6013 27.6679 50.0677 27.6679H47.1047C46.5712 27.6679 46.1387 27.2355 46.1387 26.7016V20.9044C46.1387 20.3707 46.5712 19.9384 47.1047 19.9384H50.0677C50.6013 19.9384 51.0337 20.3707 51.0337 20.9044C51.0337 21.4382 50.6013 21.8707 50.0677 21.8707H48.0709V22.837H49.2947C49.8284 22.837 50.2608 23.2694 50.2608 23.8032C50.2608 24.337 49.8284 24.7695 49.2947 24.7695H48.0709V25.7357H50.0677C50.6013 25.7355 51.0337 26.1679 51.0337 26.7016Z" fill="#FFF9EB"/>
  </g>
  <defs>
    <clipPath id="clip0_108_10276">
      <rect width="65" height="65" fill="white"/>
    </clipPath>
  </defs>
</svg>