<svg xmlns="http://www.w3.org/2000/svg" width="65" height="65" viewBox="0 0 65 65" fill="none">
  <g clip-path="url(#clip0_108_10351)">
    <path d="M15.9442 36.5387L8.10352 58.7719L15.992 58.6951L25.7206 36.5387H15.9442Z" fill="#80AAFF"/>
    <path d="M25.7199 36.5387L19.5977 59.9339L25.7636 65.0003L32.4989 45.2937V36.5387H25.7199Z" fill="#80AAFF"/>
    <path d="M23.5913 36.5387L15.9922 58.6951L18.0664 58.675L19.5986 59.9339L27.6226 36.5387H23.5913Z" fill="#EAF1FF"/>
    <path d="M49.0557 36.5387L56.8964 58.7719L49.0079 58.6951L39.2793 36.5387H49.0557Z" fill="#6680FF"/>
    <path d="M39.279 36.5387L45.4012 59.9339L39.2353 65.0003L32.5 45.2937V36.5387H39.279Z" fill="#6680FF"/>
    <path d="M41.4083 36.5387L49.0074 58.6951L46.9331 58.675L45.401 59.9339L37.377 36.5387H41.4083Z" fill="#B3CCFF"/>
    <path d="M32.4984 1.90625L31.1426 23.0483L32.4984 43.3854C43.9526 43.3854 53.238 34.1 53.238 22.6459C53.238 11.1917 43.9526 1.90625 32.4984 1.90625Z" fill="#EAF1FF"/>
    <path d="M11.7598 22.6459C11.7598 34.1 21.0452 43.3854 32.4994 43.3854V1.90625C21.0452 1.90625 11.7598 11.1917 11.7598 22.6459Z" fill="#F9F9F9"/>
    <path d="M55.1447 22.6462C55.1447 10.159 44.9855 0 32.4984 0L31.1426 1.35585L32.4984 3.8132C42.8829 3.8132 51.3315 12.2616 51.3315 22.6462C51.3315 33.0307 42.8829 41.4791 32.4984 41.4791L31.1426 43.3857L32.4984 45.2923C44.9855 45.2923 55.1447 35.1333 55.1447 22.6462Z" fill="#FDAE02"/>
    <path d="M32.4996 41.4791C22.1151 41.4791 13.6667 33.0307 13.6667 22.6462C13.6667 12.2616 22.1151 3.8132 32.4996 3.8132V0C20.0125 0 9.85352 10.159 9.85352 22.6462C9.85352 35.1333 20.0125 45.2923 32.4996 45.2923V41.4791Z" fill="#FDCB02"/>
    <path d="M43.8975 15.0947L37.9611 17.0357L32.5003 12.4162L31.1445 21.6925L32.5003 31.2679H43.8975V15.0947Z" fill="#FD9002"/>
    <path d="M32.5007 12.4162L27.0399 17.0357L21.1035 15.0947V31.2679H32.5007V12.4162Z" fill="#FDAE02"/>
  </g>
  <defs>
    <clipPath id="clip0_108_10351">
      <rect width="65" height="65" fill="white"/>
    </clipPath>
  </defs>
</svg>